<?xml version="1.0" encoding="utf-8" standalone="no"?>
<!DOCTYPE svg PUBLIC "-//W3C//DTD SVG 1.1//EN"
  "http://www.w3.org/Graphics/SVG/1.1/DTD/svg11.dtd">
<svg xmlns:xlink="http://www.w3.org/1999/xlink" width="886.737738pt" height="670.79952pt" viewBox="0 0 886.737738 670.79952" xmlns="http://www.w3.org/2000/svg" version="1.1">
 <metadata>
  <rdf:RDF xmlns:dc="http://purl.org/dc/elements/1.1/" xmlns:cc="http://creativecommons.org/ns#" xmlns:rdf="http://www.w3.org/1999/02/22-rdf-syntax-ns#">
   <cc:Work>
    <dc:type rdf:resource="http://purl.org/dc/dcmitype/StillImage"/>
    <dc:date>2026-08-01T14:44:18.821056</dc:date>
    <dc:format>image/svg+xml</dc:format>
    <dc:creator>
     <cc:Agent>
      <dc:title>Matplotlib v3.11.1, https://matplotlib.org/</dc:title>
     </cc:Agent>
    </dc:creator>
   </cc:Work>
  </rdf:RDF>
 </metadata>
 <defs>
  <style type="text/css">*{stroke-linejoin: round; stroke-linecap: butt}</style>
 </defs>
 <g id="figure_1">
  <g id="patch_1">
   <path d="M 0 670.79952 
L 886.737738 670.79952 
L 886.737738 0 
L 0 0 
z
" style="fill: #ffffff"/>
  </g>
  <g id="axes_1">
   <g id="patch_2">
    <path d="M 254.397197 171.722128 
L 591.471911 171.722128 
Q 604.9549 171.722128 604.9549 158.33325 
L 604.9549 104.777737 
Q 604.9549 91.388859 591.471911 91.388859 
L 254.397197 91.388859 
Q 240.914208 91.388859 240.914208 104.777737 
L 240.914208 158.33325 
Q 240.914208 171.722128 254.397197 171.722128 
z
" clip-path="url(#p848c5e9485)" style="opacity: 0.08; stroke: #000000; stroke-linejoin: miter"/>
   </g>
   <g id="patch_3">
    <path d="M 250.3523 167.705465 
L 587.427015 167.705465 
Q 600.910003 167.705465 600.910003 154.316587 
L 600.910003 100.761074 
Q 600.910003 87.372196 587.427015 87.372196 
L 250.3523 87.372196 
Q 236.869312 87.372196 236.869312 100.761074 
L 236.869312 154.316587 
Q 236.869312 167.705465 250.3523 167.705465 
z
" clip-path="url(#p848c5e9485)" style="fill: #263238; opacity: 0.85; stroke: #ffffff; stroke-width: 2; stroke-linejoin: miter"/>
   </g>
   <g id="patch_4">
    <path d="M 119.567311 305.610911 
L 355.519611 305.610911 
Q 369.0026 305.610911 369.0026 292.222032 
L 369.0026 238.666519 
Q 369.0026 225.277641 355.519611 225.277641 
L 119.567311 225.277641 
Q 106.084322 225.277641 106.084322 238.666519 
L 106.084322 292.222032 
Q 106.084322 305.610911 119.567311 305.610911 
z
" clip-path="url(#p848c5e9485)" style="opacity: 0.08; stroke: #000000; stroke-linejoin: miter"/>
   </g>
   <g id="patch_5">
    <path d="M 115.522414 301.594247 
L 351.474715 301.594247 
Q 364.957703 301.594247 364.957703 288.205369 
L 364.957703 234.649856 
Q 364.957703 221.260978 351.474715 221.260978 
L 115.522414 221.260978 
Q 102.039426 221.260978 102.039426 234.649856 
L 102.039426 288.205369 
Q 102.039426 301.594247 115.522414 301.594247 
z
" clip-path="url(#p848c5e9485)" style="fill: #2196f3; opacity: 0.9; stroke: #ffffff; stroke-width: 2; stroke-linejoin: miter"/>
   </g>
   <g id="patch_6">
    <path d="M 490.349497 305.610911 
L 726.301797 305.610911 
Q 739.784786 305.610911 739.784786 292.222032 
L 739.784786 238.666519 
Q 739.784786 225.277641 726.301797 225.277641 
L 490.349497 225.277641 
Q 476.866508 225.277641 476.866508 238.666519 
L 476.866508 292.222032 
Q 476.866508 305.610911 490.349497 305.610911 
z
" clip-path="url(#p848c5e9485)" style="opacity: 0.08; stroke: #000000; stroke-linejoin: miter"/>
   </g>
   <g id="patch_7">
    <path d="M 486.304601 301.594247 
L 722.256901 301.594247 
Q 735.739889 301.594247 735.739889 288.205369 
L 735.739889 234.649856 
Q 735.739889 221.260978 722.256901 221.260978 
L 486.304601 221.260978 
Q 472.821612 221.260978 472.821612 234.649856 
L 472.821612 288.205369 
Q 472.821612 301.594247 486.304601 301.594247 
z
" clip-path="url(#p848c5e9485)" style="fill: #ff9800; opacity: 0.9; stroke: #ffffff; stroke-width: 2; stroke-linejoin: miter"/>
   </g>
   <g id="patch_8">
    <path d="M 52.152368 472.971888 
L 288.104668 472.971888 
Q 301.587657 472.971888 301.587657 459.58301 
L 301.587657 406.027497 
Q 301.587657 392.638619 288.104668 392.638619 
L 52.152368 392.638619 
Q 38.669379 392.638619 38.669379 406.027497 
L 38.669379 459.58301 
Q 38.669379 472.971888 52.152368 472.971888 
z
" clip-path="url(#p848c5e9485)" style="opacity: 0.08; stroke: #000000; stroke-linejoin: miter"/>
   </g>
   <g id="patch_9">
    <path d="M 48.107471 468.955225 
L 284.059772 468.955225 
Q 297.54276 468.955225 297.54276 455.566347 
L 297.54276 402.010834 
Q 297.54276 388.621956 284.059772 388.621956 
L 48.107471 388.621956 
Q 34.624483 388.621956 34.624483 402.010834 
L 34.624483 455.566347 
Q 34.624483 468.955225 48.107471 468.955225 
z
" clip-path="url(#p848c5e9485)" style="fill: #4caf50; opacity: 0.9; stroke: #ffffff; stroke-width: 2; stroke-linejoin: miter"/>
   </g>
   <g id="patch_10">
    <path d="M 321.81214 472.971888 
L 557.76444 472.971888 
Q 571.247429 472.971888 571.247429 459.58301 
L 571.247429 406.027497 
Q 571.247429 392.638619 557.76444 392.638619 
L 321.81214 392.638619 
Q 308.329151 392.638619 308.329151 406.027497 
L 308.329151 459.58301 
Q 308.329151 472.971888 321.81214 472.971888 
z
" clip-path="url(#p848c5e9485)" style="opacity: 0.08; stroke: #000000; stroke-linejoin: miter"/>
   </g>
   <g id="patch_11">
    <path d="M 317.767243 468.955225 
L 553.719543 468.955225 
Q 567.202532 468.955225 567.202532 455.566347 
L 567.202532 402.010834 
Q 567.202532 388.621956 553.719543 388.621956 
L 317.767243 388.621956 
Q 304.284255 388.621956 304.284255 402.010834 
L 304.284255 455.566347 
Q 304.284255 468.955225 317.767243 468.955225 
z
" clip-path="url(#p848c5e9485)" style="fill: #9c27b0; opacity: 0.9; stroke: #ffffff; stroke-width: 2; stroke-linejoin: miter"/>
   </g>
   <g id="patch_12">
    <path d="M 591.471911 472.971888 
L 827.424212 472.971888 
Q 840.9072 472.971888 840.9072 459.58301 
L 840.9072 406.027497 
Q 840.9072 392.638619 827.424212 392.638619 
L 591.471911 392.638619 
Q 577.988923 392.638619 577.988923 406.027497 
L 577.988923 459.58301 
Q 577.988923 472.971888 591.471911 472.971888 
z
" clip-path="url(#p848c5e9485)" style="opacity: 0.08; stroke: #000000; stroke-linejoin: miter"/>
   </g>
   <g id="patch_13">
    <path d="M 587.427015 468.955225 
L 823.379315 468.955225 
Q 836.862304 468.955225 836.862304 455.566347 
L 836.862304 402.010834 
Q 836.862304 388.621956 823.379315 388.621956 
L 587.427015 388.621956 
Q 573.944026 388.621956 573.944026 402.010834 
L 573.944026 455.566347 
Q 573.944026 468.955225 587.427015 468.955225 
z
" clip-path="url(#p848c5e9485)" style="fill: #263238; opacity: 0.85; stroke: #ffffff; stroke-width: 2; stroke-linejoin: miter"/>
   </g>
   <g id="patch_14">
    <path d="M 490.349497 640.332866 
L 726.301797 640.332866 
Q 739.784786 640.332866 739.784786 626.943988 
L 739.784786 573.388475 
Q 739.784786 559.999597 726.301797 559.999597 
L 490.349497 559.999597 
Q 476.866508 559.999597 476.866508 573.388475 
L 476.866508 626.943988 
Q 476.866508 640.332866 490.349497 640.332866 
z
" clip-path="url(#p848c5e9485)" style="opacity: 0.08; stroke: #000000; stroke-linejoin: miter"/>
   </g>
   <g id="patch_15">
    <path d="M 486.304601 636.316203 
L 722.256901 636.316203 
Q 735.739889 636.316203 735.739889 622.927324 
L 735.739889 569.371812 
Q 735.739889 555.982933 722.256901 555.982933 
L 486.304601 555.982933 
Q 472.821612 555.982933 472.821612 569.371812 
L 472.821612 622.927324 
Q 472.821612 636.316203 486.304601 636.316203 
z
" clip-path="url(#p848c5e9485)" style="fill: #4caf50; opacity: 0.9; stroke: #ffffff; stroke-width: 2; stroke-linejoin: miter"/>
   </g>
   <g id="patch_16">
    <path d="M 726.301797 640.332866 
L 962.254098 640.332866 
Q 975.737086 640.332866 975.737086 626.943988 
L 975.737086 573.388475 
Q 975.737086 559.999597 962.254098 559.999597 
L 726.301797 559.999597 
Q 712.818809 559.999597 712.818809 573.388475 
L 712.818809 626.943988 
Q 712.818809 640.332866 726.301797 640.332866 
z
" clip-path="url(#p848c5e9485)" style="opacity: 0.08; stroke: #000000; stroke-linejoin: miter"/>
   </g>
   <g id="patch_17">
    <path d="M 722.256901 636.316203 
L 958.209201 636.316203 
Q 971.69219 636.316203 971.69219 622.927324 
L 971.69219 569.371812 
Q 971.69219 555.982933 958.209201 555.982933 
L 722.256901 555.982933 
Q 708.773912 555.982933 708.773912 569.371812 
L 708.773912 622.927324 
Q 708.773912 636.316203 722.256901 636.316203 
z
" clip-path="url(#p848c5e9485)" style="fill: #ff9800; opacity: 0.9; stroke: #ffffff; stroke-width: 2; stroke-linejoin: miter"/>
   </g>
   <g id="patch_18">
    <path d="M 48.107471 636.316203 
L 284.059772 636.316203 
Q 297.54276 636.316203 297.54276 622.927324 
L 297.54276 569.371812 
Q 297.54276 555.982933 284.059772 555.982933 
L 48.107471 555.982933 
Q 34.624483 555.982933 34.624483 569.371812 
L 34.624483 622.927324 
Q 34.624483 636.316203 48.107471 636.316203 
z
" clip-path="url(#p848c5e9485)" style="fill: #4caf50; opacity: 0.9; stroke: #ffffff; stroke-width: 2; stroke-linejoin: miter"/>
   </g>
   <g id="patch_19">
    <path d="M 317.767243 636.316203 
L 553.719543 636.316203 
Q 567.202532 636.316203 567.202532 622.927324 
L 567.202532 569.371812 
Q 567.202532 555.982933 553.719543 555.982933 
L 317.767243 555.982933 
Q 304.284255 555.982933 304.284255 569.371812 
L 304.284255 622.927324 
Q 304.284255 636.316203 317.767243 636.316203 
z
" clip-path="url(#p848c5e9485)" style="fill: #9c27b0; opacity: 0.9; stroke: #ffffff; stroke-width: 2; stroke-linejoin: miter"/>
   </g>
   <g id="text_1">
    <!-- Which framework? -->
    <g style="fill: #ffffff" transform="translate(374.088876 131.32883) scale(0.1 -0.1)">
     <defs>
      <path id="HelveticaNeue-Bold-3e" d="M 4794 0 
L 6022 4570 
L 5037 4570 
L 4288 1421 
L 4275 1421 
L 3494 4570 
L 2554 4570 
L 1760 1459 
L 1747 1459 
L 1024 4570 
L 19 4570 
L 1229 0 
L 2246 0 
L 3008 3110 
L 3021 3110 
L 3795 0 
L 4794 0 
z
" transform="scale(0.015625)"/>
      <path id="HelveticaNeue-Bold-4f" d="M 346 4570 
L 346 0 
L 1254 0 
L 1254 1734 
Q 1254 2240 1420 2461 
Q 1587 2682 1958 2682 
Q 2285 2682 2413 2480 
Q 2541 2278 2541 1869 
L 2541 0 
L 3450 0 
L 3450 2035 
Q 3450 2342 3395 2595 
Q 3341 2848 3206 3024 
Q 3072 3200 2838 3299 
Q 2605 3398 2240 3398 
Q 1984 3398 1715 3267 
Q 1446 3136 1274 2848 
L 1254 2848 
L 1254 4570 
L 346 4570 
z
" transform="scale(0.015625)"/>
      <path id="HelveticaNeue-Bold-50" d="M 1280 3821 
L 1280 4570 
L 371 4570 
L 371 3821 
L 1280 3821 
z
M 371 3309 
L 371 0 
L 1280 0 
L 1280 3309 
L 371 3309 
z
" transform="scale(0.015625)"/>
      <path id="HelveticaNeue-Bold-4a" d="M 2598 2144 
L 3488 2144 
Q 3469 2464 3334 2697 
Q 3200 2931 2985 3088 
Q 2771 3245 2499 3321 
Q 2227 3398 1933 3398 
Q 1530 3398 1216 3264 
Q 902 3130 684 2890 
Q 467 2650 355 2320 
Q 243 1990 243 1606 
Q 243 1235 364 924 
Q 486 614 704 390 
Q 922 166 1232 41 
Q 1542 -83 1914 -83 
Q 2573 -83 2995 262 
Q 3418 608 3507 1267 
L 2630 1267 
Q 2586 960 2410 777 
Q 2234 595 1907 595 
Q 1696 595 1549 691 
Q 1402 787 1315 937 
Q 1229 1088 1190 1273 
Q 1152 1459 1152 1638 
Q 1152 1824 1190 2013 
Q 1229 2202 1321 2358 
Q 1414 2515 1561 2614 
Q 1709 2714 1926 2714 
Q 2509 2714 2598 2144 
z
" transform="scale(0.015625)"/>
      <path id="HelveticaNeue-Bold-3" transform="scale(0.015625)"/>
      <path id="HelveticaNeue-Bold-4d" d="M 544 2701 
L 544 0 
L 1453 0 
L 1453 2701 
L 2080 2701 
L 2080 3309 
L 1453 3309 
L 1453 3507 
Q 1453 3712 1533 3798 
Q 1613 3885 1798 3885 
Q 1971 3885 2131 3866 
L 2131 4544 
Q 2016 4550 1894 4560 
Q 1773 4570 1651 4570 
Q 1094 4570 819 4288 
Q 544 4006 544 3565 
L 544 3309 
L 0 3309 
L 0 2701 
L 544 2701 
z
" transform="scale(0.015625)"/>
      <path id="HelveticaNeue-Bold-59" d="M 346 3309 
L 346 0 
L 1254 0 
L 1254 1491 
Q 1254 1715 1299 1907 
Q 1344 2099 1449 2243 
Q 1555 2387 1728 2470 
Q 1901 2554 2150 2554 
Q 2234 2554 2323 2544 
Q 2413 2534 2477 2522 
L 2477 3366 
Q 2368 3398 2278 3398 
Q 2106 3398 1946 3347 
Q 1786 3296 1645 3203 
Q 1504 3110 1395 2979 
Q 1286 2848 1222 2694 
L 1210 2694 
L 1210 3309 
L 346 3309 
z
" transform="scale(0.015625)"/>
      <path id="HelveticaNeue-Bold-48" d="M 307 2291 
Q 326 2611 467 2822 
Q 608 3034 825 3162 
Q 1043 3290 1315 3344 
Q 1587 3398 1862 3398 
Q 2112 3398 2368 3363 
Q 2624 3328 2835 3225 
Q 3046 3123 3180 2940 
Q 3315 2758 3315 2458 
L 3315 736 
Q 3315 512 3340 307 
Q 3366 102 3430 0 
L 2509 0 
Q 2483 77 2467 157 
Q 2451 237 2445 320 
Q 2227 96 1932 6 
Q 1638 -83 1331 -83 
Q 1094 -83 889 -25 
Q 685 32 531 153 
Q 378 275 291 460 
Q 205 646 205 902 
Q 205 1184 304 1366 
Q 403 1549 560 1657 
Q 717 1766 918 1820 
Q 1120 1875 1325 1907 
Q 1530 1939 1728 1958 
Q 1926 1978 2080 2016 
Q 2234 2054 2323 2128 
Q 2413 2202 2406 2342 
Q 2406 2490 2358 2576 
Q 2310 2662 2230 2710 
Q 2150 2758 2044 2774 
Q 1939 2790 1818 2790 
Q 1549 2790 1395 2675 
Q 1242 2560 1216 2291 
L 307 2291 
z
M 2406 1619 
Q 2349 1568 2262 1539 
Q 2176 1510 2077 1491 
Q 1978 1472 1869 1459 
Q 1760 1446 1651 1427 
Q 1549 1408 1449 1376 
Q 1350 1344 1276 1289 
Q 1203 1235 1158 1152 
Q 1114 1069 1114 941 
Q 1114 819 1158 736 
Q 1203 653 1280 605 
Q 1357 557 1459 537 
Q 1562 518 1670 518 
Q 1939 518 2086 608 
Q 2234 698 2304 822 
Q 2374 947 2390 1075 
Q 2406 1203 2406 1280 
L 2406 1619 
z
" transform="scale(0.015625)"/>
      <path id="HelveticaNeue-Bold-54" d="M 371 3309 
L 371 0 
L 1280 0 
L 1280 1920 
Q 1280 2163 1350 2313 
Q 1421 2464 1520 2544 
Q 1619 2624 1724 2653 
Q 1830 2682 1894 2682 
Q 2112 2682 2224 2608 
Q 2336 2534 2384 2412 
Q 2432 2291 2438 2147 
Q 2445 2003 2445 1856 
L 2445 0 
L 3354 0 
L 3354 1843 
Q 3354 1997 3376 2147 
Q 3398 2298 3465 2416 
Q 3533 2534 3651 2608 
Q 3770 2682 3962 2682 
Q 4154 2682 4266 2618 
Q 4378 2554 4435 2445 
Q 4493 2336 4505 2189 
Q 4518 2042 4518 1875 
L 4518 0 
L 5427 0 
L 5427 2214 
Q 5427 2534 5337 2761 
Q 5248 2989 5088 3129 
Q 4928 3270 4704 3334 
Q 4480 3398 4218 3398 
Q 3872 3398 3619 3232 
Q 3366 3066 3219 2848 
Q 3085 3155 2825 3276 
Q 2566 3398 2253 3398 
Q 1926 3398 1673 3257 
Q 1421 3117 1242 2861 
L 1229 2861 
L 1229 3309 
L 371 3309 
z
" transform="scale(0.015625)"/>
      <path id="HelveticaNeue-Bold-4c" d="M 2573 2010 
L 1094 2010 
Q 1101 2106 1136 2227 
Q 1171 2349 1257 2457 
Q 1344 2566 1488 2640 
Q 1632 2714 1850 2714 
Q 2182 2714 2345 2534 
Q 2509 2355 2573 2010 
z
M 1094 1434 
L 3482 1434 
Q 3507 1818 3417 2170 
Q 3328 2522 3126 2797 
Q 2925 3072 2611 3235 
Q 2298 3398 1875 3398 
Q 1498 3398 1187 3264 
Q 877 3130 653 2896 
Q 429 2662 307 2342 
Q 186 2022 186 1651 
Q 186 1267 304 947 
Q 422 627 640 396 
Q 858 166 1171 41 
Q 1485 -83 1875 -83 
Q 2438 -83 2835 173 
Q 3232 429 3424 1024 
L 2624 1024 
Q 2579 870 2380 732 
Q 2182 595 1907 595 
Q 1523 595 1318 793 
Q 1114 992 1094 1434 
z
" transform="scale(0.015625)"/>
      <path id="HelveticaNeue-Bold-5e" d="M 4128 0 
L 5171 3309 
L 4237 3309 
L 3629 1069 
L 3616 1069 
L 3053 3309 
L 2170 3309 
L 1619 1062 
L 1606 1062 
L 998 3309 
L 38 3309 
L 1088 0 
L 2029 0 
L 2592 2221 
L 2605 2221 
L 3194 0 
L 4128 0 
z
" transform="scale(0.015625)"/>
      <path id="HelveticaNeue-Bold-56" d="M 1152 1651 
Q 1152 1850 1190 2042 
Q 1229 2234 1321 2381 
Q 1414 2528 1568 2621 
Q 1722 2714 1952 2714 
Q 2182 2714 2339 2621 
Q 2496 2528 2589 2381 
Q 2682 2234 2720 2042 
Q 2758 1850 2758 1651 
Q 2758 1453 2720 1264 
Q 2682 1075 2589 924 
Q 2496 774 2339 684 
Q 2182 595 1952 595 
Q 1722 595 1568 684 
Q 1414 774 1321 924 
Q 1229 1075 1190 1264 
Q 1152 1453 1152 1651 
z
M 243 1651 
Q 243 1254 364 934 
Q 486 614 710 387 
Q 934 160 1248 38 
Q 1562 -83 1952 -83 
Q 2342 -83 2659 38 
Q 2976 160 3200 387 
Q 3424 614 3545 934 
Q 3667 1254 3667 1651 
Q 3667 2048 3545 2371 
Q 3424 2694 3200 2921 
Q 2976 3149 2659 3273 
Q 2342 3398 1952 3398 
Q 1562 3398 1248 3273 
Q 934 3149 710 2921 
Q 486 2694 364 2371 
Q 243 2048 243 1651 
z
" transform="scale(0.015625)"/>
      <path id="HelveticaNeue-Bold-52" d="M 429 4570 
L 429 0 
L 1338 0 
L 1338 1139 
L 1690 1478 
L 2598 0 
L 3699 0 
L 2310 2093 
L 3558 3309 
L 2483 3309 
L 1338 2118 
L 1338 4570 
L 429 4570 
z
" transform="scale(0.015625)"/>
      <path id="HelveticaNeue-Bold-26" d="M 2240 986 
L 2240 0 
L 1235 0 
L 1235 986 
L 2240 986 
z
M 205 3098 
Q 211 3443 323 3731 
Q 435 4019 636 4230 
Q 838 4442 1123 4560 
Q 1408 4678 1760 4678 
Q 2214 4678 2518 4553 
Q 2822 4429 3008 4243 
Q 3194 4058 3274 3843 
Q 3354 3629 3354 3443 
Q 3354 3136 3274 2937 
Q 3194 2739 3075 2598 
Q 2957 2458 2813 2358 
Q 2669 2259 2541 2160 
Q 2413 2061 2313 1933 
Q 2214 1805 2189 1613 
L 2189 1370 
L 1325 1370 
L 1325 1658 
Q 1344 1933 1430 2118 
Q 1517 2304 1632 2435 
Q 1747 2566 1875 2662 
Q 2003 2758 2112 2854 
Q 2221 2950 2288 3065 
Q 2355 3181 2349 3354 
Q 2349 3648 2205 3789 
Q 2061 3930 1805 3930 
Q 1632 3930 1507 3862 
Q 1382 3795 1302 3683 
Q 1222 3571 1184 3420 
Q 1146 3270 1146 3098 
L 205 3098 
z
" transform="scale(0.015625)"/>
     </defs>
     <use xlink:href="#HelveticaNeue-Bold-3e"/>
     <use xlink:href="#HelveticaNeue-Bold-4f" transform="translate(94.40625 0)"/>
     <use xlink:href="#HelveticaNeue-Bold-50" transform="translate(153.703125 0)"/>
     <use xlink:href="#HelveticaNeue-Bold-4a" transform="translate(179.5 0)"/>
     <use xlink:href="#HelveticaNeue-Bold-4f" transform="translate(236.90625 0)"/>
     <use xlink:href="#HelveticaNeue-Bold-3" transform="translate(296.203125 0)"/>
     <use xlink:href="#HelveticaNeue-Bold-4d" transform="translate(324 0)"/>
     <use xlink:href="#HelveticaNeue-Bold-59" transform="translate(357.296875 0)"/>
     <use xlink:href="#HelveticaNeue-Bold-48" transform="translate(396.203125 0)"/>
     <use xlink:href="#HelveticaNeue-Bold-54" transform="translate(453.609375 0)"/>
     <use xlink:href="#HelveticaNeue-Bold-4c" transform="translate(544.203125 0)"/>
     <use xlink:href="#HelveticaNeue-Bold-5e" transform="translate(601.609375 0)"/>
     <use xlink:href="#HelveticaNeue-Bold-56" transform="translate(683.015625 0)"/>
     <use xlink:href="#HelveticaNeue-Bold-59" transform="translate(744.109375 0)"/>
     <use xlink:href="#HelveticaNeue-Bold-52" transform="translate(783.015625 0)"/>
     <use xlink:href="#HelveticaNeue-Bold-26" transform="translate(840.421875 0)"/>
    </g>
   </g>
   <g id="text_2">
    <!-- MLX -->
    <g style="fill: #ffffff" transform="translate(222.663408 259.112612) scale(0.1 -0.1)">
     <defs>
      <path id="HelveticaNeue-Bold-34" d="M 442 4570 
L 442 0 
L 1382 0 
L 1382 3206 
L 1395 3206 
L 2515 0 
L 3290 0 
L 4410 3238 
L 4422 3238 
L 4422 0 
L 5363 0 
L 5363 4570 
L 3949 4570 
L 2938 1427 
L 2925 1427 
L 1856 4570 
L 442 4570 
z
" transform="scale(0.015625)"/>
      <path id="HelveticaNeue-Bold-33" d="M 442 4570 
L 442 0 
L 3674 0 
L 3674 845 
L 1446 845 
L 1446 4570 
L 442 4570 
z
" transform="scale(0.015625)"/>
      <path id="HelveticaNeue-Bold-3f" d="M 1562 2394 
L -32 0 
L 1094 0 
L 2112 1581 
L 3110 0 
L 4307 0 
L 2714 2387 
L 4179 4570 
L 3078 4570 
L 2150 3110 
L 1254 4570 
L 90 4570 
L 1562 2394 
z
" transform="scale(0.015625)"/>
     </defs>
     <use xlink:href="#HelveticaNeue-Bold-34"/>
     <use xlink:href="#HelveticaNeue-Bold-33" transform="translate(90.703125 0)"/>
     <use xlink:href="#HelveticaNeue-Bold-3f" transform="translate(150 0)"/>
    </g>
    <!-- (NVFP4 / MXFP8) -->
    <g style="fill: #ffffff" transform="translate(193.02044 271.322612) scale(0.1 -0.1)">
     <defs>
      <path id="HelveticaNeue-Bold-f" d="M 1939 4678 
L 1178 4678 
Q 966 4371 809 4006 
Q 653 3642 547 3251 
Q 442 2861 387 2467 
Q 333 2074 333 1715 
Q 333 960 553 230 
Q 774 -499 1178 -1158 
L 1933 -1158 
Q 1568 -461 1405 275 
Q 1242 1011 1242 1779 
Q 1242 2534 1408 3267 
Q 1574 4000 1939 4678 
z
" transform="scale(0.015625)"/>
      <path id="HelveticaNeue-Bold-35" d="M 442 4570 
L 442 0 
L 1382 0 
L 1382 3059 
L 1395 3059 
L 3296 0 
L 4301 0 
L 4301 4570 
L 3360 4570 
L 3360 1504 
L 3347 1504 
L 1440 4570 
L 442 4570 
z
" transform="scale(0.015625)"/>
      <path id="HelveticaNeue-Bold-3d" d="M 2566 0 
L 4083 4570 
L 3046 4570 
L 2016 1357 
L 2003 1357 
L 986 4570 
L -45 4570 
L 1434 0 
L 2566 0 
z
" transform="scale(0.015625)"/>
      <path id="HelveticaNeue-Bold-2d" d="M 442 4570 
L 442 0 
L 1446 0 
L 1446 1888 
L 3360 1888 
L 3360 2669 
L 1446 2669 
L 1446 3725 
L 3654 3725 
L 3654 4570 
L 442 4570 
z
" transform="scale(0.015625)"/>
      <path id="HelveticaNeue-Bold-37" d="M 1446 2419 
L 1446 3789 
L 2227 3789 
Q 2400 3789 2560 3763 
Q 2720 3738 2841 3664 
Q 2963 3590 3036 3456 
Q 3110 3322 3110 3104 
Q 3110 2886 3036 2752 
Q 2963 2618 2841 2544 
Q 2720 2470 2560 2444 
Q 2400 2419 2227 2419 
L 1446 2419 
z
M 442 4570 
L 442 0 
L 1446 0 
L 1446 1638 
L 2502 1638 
Q 2931 1638 3232 1763 
Q 3533 1888 3721 2093 
Q 3910 2298 3996 2563 
Q 4083 2829 4083 3104 
Q 4083 3386 3996 3648 
Q 3910 3910 3721 4115 
Q 3533 4320 3232 4445 
Q 2931 4570 2502 4570 
L 442 4570 
z
" transform="scale(0.015625)"/>
      <path id="HelveticaNeue-Bold-1b" d="M 1997 3341 
L 1997 1786 
L 819 1786 
L 1978 3341 
L 1997 3341 
z
M 1997 1037 
L 1997 0 
L 2861 0 
L 2861 1037 
L 3456 1037 
L 3456 1786 
L 2861 1786 
L 2861 4480 
L 2048 4480 
L 102 1869 
L 102 1037 
L 1997 1037 
z
" transform="scale(0.015625)"/>
      <path id="HelveticaNeue-Bold-16" d="M 1715 4678 
L -64 -102 
L 659 -102 
L 2445 4678 
L 1715 4678 
z
" transform="scale(0.015625)"/>
      <path id="HelveticaNeue-Bold-1f" d="M 1101 3264 
Q 1101 3418 1155 3533 
Q 1210 3648 1306 3725 
Q 1402 3802 1526 3843 
Q 1651 3885 1786 3885 
Q 1997 3885 2128 3821 
Q 2259 3757 2332 3661 
Q 2406 3565 2432 3459 
Q 2458 3354 2458 3264 
Q 2458 2976 2266 2825 
Q 2074 2675 1786 2675 
Q 1510 2675 1305 2825 
Q 1101 2976 1101 3264 
z
M 275 3347 
Q 275 3014 441 2764 
Q 608 2515 934 2426 
L 934 2413 
Q 531 2317 310 2029 
Q 90 1741 90 1312 
Q 90 947 234 684 
Q 378 422 618 249 
Q 858 77 1162 -3 
Q 1466 -83 1792 -83 
Q 2106 -83 2406 3 
Q 2707 90 2944 262 
Q 3181 435 3325 697 
Q 3469 960 3469 1318 
Q 3469 1741 3251 2032 
Q 3034 2323 2630 2413 
L 2630 2426 
Q 2957 2534 3120 2784 
Q 3283 3034 3283 3366 
Q 3283 3533 3206 3741 
Q 3130 3949 2954 4131 
Q 2778 4314 2490 4442 
Q 2202 4570 1786 4570 
Q 1510 4570 1241 4493 
Q 973 4416 758 4262 
Q 544 4109 409 3878 
Q 275 3648 275 3347 
z
M 998 1357 
Q 998 1702 1228 1884 
Q 1459 2067 1792 2067 
Q 1952 2067 2089 2016 
Q 2227 1965 2332 1869 
Q 2438 1773 2499 1641 
Q 2560 1510 2560 1350 
Q 2560 1184 2502 1043 
Q 2445 902 2339 803 
Q 2234 704 2096 649 
Q 1958 595 1792 595 
Q 1632 595 1485 649 
Q 1338 704 1232 803 
Q 1126 902 1062 1043 
Q 998 1184 998 1357 
z
" transform="scale(0.015625)"/>
      <path id="HelveticaNeue-Bold-10" d="M -38 -1158 
L 717 -1158 
Q 928 -858 1088 -493 
Q 1248 -128 1353 259 
Q 1459 646 1510 1040 
Q 1562 1434 1562 1792 
Q 1562 2547 1341 3283 
Q 1120 4019 717 4678 
L -32 4678 
Q 320 3981 486 3238 
Q 653 2496 653 1728 
Q 653 973 483 246 
Q 314 -480 -38 -1158 
z
" transform="scale(0.015625)"/>
     </defs>
     <use xlink:href="#HelveticaNeue-Bold-f"/>
     <use xlink:href="#HelveticaNeue-Bold-35" transform="translate(29.59375 0)"/>
     <use xlink:href="#HelveticaNeue-Bold-3d" transform="translate(103.6875 0)"/>
     <use xlink:href="#HelveticaNeue-Bold-2d" transform="translate(166.6875 0)"/>
     <use xlink:href="#HelveticaNeue-Bold-37" transform="translate(225.984375 0)"/>
     <use xlink:href="#HelveticaNeue-Bold-1b" transform="translate(292.6875 0)"/>
     <use xlink:href="#HelveticaNeue-Bold-3" transform="translate(348.28125 0)"/>
     <use xlink:href="#HelveticaNeue-Bold-16" transform="translate(376.078125 0)"/>
     <use xlink:href="#HelveticaNeue-Bold-3" transform="translate(413.171875 0)"/>
     <use xlink:href="#HelveticaNeue-Bold-34" transform="translate(440.96875 0)"/>
     <use xlink:href="#HelveticaNeue-Bold-3f" transform="translate(531.671875 0)"/>
     <use xlink:href="#HelveticaNeue-Bold-2d" transform="translate(598.375 0)"/>
     <use xlink:href="#HelveticaNeue-Bold-37" transform="translate(657.671875 0)"/>
     <use xlink:href="#HelveticaNeue-Bold-1f" transform="translate(724.375 0)"/>
     <use xlink:href="#HelveticaNeue-Bold-10" transform="translate(779.96875 0)"/>
    </g>
   </g>
   <g id="text_3">
    <!-- Ollama / llama.cpp -->
    <g style="fill: #ffffff" transform="translate(559.687001 259.112612) scale(0.1 -0.1)">
     <defs>
      <path id="HelveticaNeue-Bold-36" d="M 1248 2266 
Q 1248 2566 1315 2848 
Q 1382 3130 1529 3350 
Q 1677 3571 1913 3702 
Q 2150 3834 2490 3834 
Q 2829 3834 3065 3702 
Q 3302 3571 3449 3350 
Q 3597 3130 3664 2848 
Q 3731 2566 3731 2266 
Q 3731 1978 3664 1706 
Q 3597 1434 3449 1216 
Q 3302 998 3065 867 
Q 2829 736 2490 736 
Q 2150 736 1913 867 
Q 1677 998 1529 1216 
Q 1382 1434 1315 1706 
Q 1248 1978 1248 2266 
z
M 243 2266 
Q 243 1766 396 1334 
Q 550 902 838 582 
Q 1126 262 1545 80 
Q 1965 -102 2490 -102 
Q 3021 -102 3437 80 
Q 3853 262 4141 582 
Q 4429 902 4582 1334 
Q 4736 1766 4736 2266 
Q 4736 2778 4582 3216 
Q 4429 3654 4141 3980 
Q 3853 4307 3437 4492 
Q 3021 4678 2490 4678 
Q 1965 4678 1545 4492 
Q 1126 4307 838 3980 
Q 550 3654 396 3216 
Q 243 2778 243 2266 
z
" transform="scale(0.015625)"/>
      <path id="HelveticaNeue-Bold-53" d="M 371 4570 
L 371 0 
L 1280 0 
L 1280 4570 
L 371 4570 
z
" transform="scale(0.015625)"/>
      <path id="HelveticaNeue-Bold-15" d="M 384 986 
L 384 0 
L 1389 0 
L 1389 986 
L 384 986 
z
" transform="scale(0.015625)"/>
      <path id="HelveticaNeue-Bold-57" d="M 2016 595 
Q 1798 595 1644 684 
Q 1491 774 1398 918 
Q 1306 1062 1264 1254 
Q 1222 1446 1222 1645 
Q 1222 1850 1260 2042 
Q 1299 2234 1392 2381 
Q 1485 2528 1635 2621 
Q 1786 2714 2010 2714 
Q 2227 2714 2377 2621 
Q 2528 2528 2624 2377 
Q 2720 2227 2761 2035 
Q 2803 1843 2803 1645 
Q 2803 1446 2764 1254 
Q 2726 1062 2633 918 
Q 2541 774 2390 684 
Q 2240 595 2016 595 
z
M 346 3309 
L 346 -1158 
L 1254 -1158 
L 1254 410 
L 1267 410 
Q 1434 166 1693 41 
Q 1952 -83 2259 -83 
Q 2624 -83 2896 57 
Q 3168 198 3350 435 
Q 3533 672 3622 979 
Q 3712 1286 3712 1619 
Q 3712 1971 3622 2294 
Q 3533 2618 3347 2861 
Q 3162 3104 2880 3251 
Q 2598 3398 2208 3398 
Q 1901 3398 1645 3276 
Q 1389 3155 1222 2886 
L 1210 2886 
L 1210 3309 
L 346 3309 
z
" transform="scale(0.015625)"/>
     </defs>
     <use xlink:href="#HelveticaNeue-Bold-36"/>
     <use xlink:href="#HelveticaNeue-Bold-53" transform="translate(77.796875 0)"/>
     <use xlink:href="#HelveticaNeue-Bold-53" transform="translate(103.59375 0)"/>
     <use xlink:href="#HelveticaNeue-Bold-48" transform="translate(129.390625 0)"/>
     <use xlink:href="#HelveticaNeue-Bold-54" transform="translate(186.796875 0)"/>
     <use xlink:href="#HelveticaNeue-Bold-48" transform="translate(277.390625 0)"/>
     <use xlink:href="#HelveticaNeue-Bold-3" transform="translate(334.796875 0)"/>
     <use xlink:href="#HelveticaNeue-Bold-16" transform="translate(362.59375 0)"/>
     <use xlink:href="#HelveticaNeue-Bold-3" transform="translate(399.6875 0)"/>
     <use xlink:href="#HelveticaNeue-Bold-53" transform="translate(427.484375 0)"/>
     <use xlink:href="#HelveticaNeue-Bold-53" transform="translate(453.28125 0)"/>
     <use xlink:href="#HelveticaNeue-Bold-48" transform="translate(479.078125 0)"/>
     <use xlink:href="#HelveticaNeue-Bold-54" transform="translate(536.484375 0)"/>
     <use xlink:href="#HelveticaNeue-Bold-48" transform="translate(627.078125 0)"/>
     <use xlink:href="#HelveticaNeue-Bold-15" transform="translate(684.484375 0)"/>
     <use xlink:href="#HelveticaNeue-Bold-4a" transform="translate(712.28125 0)"/>
     <use xlink:href="#HelveticaNeue-Bold-57" transform="translate(769.6875 0)"/>
     <use xlink:href="#HelveticaNeue-Bold-57" transform="translate(830.78125 0)"/>
    </g>
    <!-- (GGUF) -->
    <g style="fill: #ffffff" transform="translate(587.061219 271.322612) scale(0.1 -0.1)">
     <defs>
      <path id="HelveticaNeue-Bold-2e" d="M 3744 518 
L 3846 0 
L 4486 0 
L 4486 2470 
L 2566 2470 
L 2566 1722 
L 3578 1722 
Q 3533 1242 3261 989 
Q 2989 736 2490 736 
Q 2150 736 1913 867 
Q 1677 998 1529 1216 
Q 1382 1434 1315 1706 
Q 1248 1978 1248 2266 
Q 1248 2566 1315 2848 
Q 1382 3130 1529 3350 
Q 1677 3571 1913 3702 
Q 2150 3834 2490 3834 
Q 2854 3834 3110 3642 
Q 3366 3450 3456 3066 
L 4416 3066 
Q 4378 3456 4205 3757 
Q 4032 4058 3766 4262 
Q 3501 4467 3171 4572 
Q 2842 4678 2490 4678 
Q 1965 4678 1545 4492 
Q 1126 4307 838 3980 
Q 550 3654 396 3216 
Q 243 2778 243 2266 
Q 243 1766 396 1334 
Q 550 902 838 582 
Q 1126 262 1545 80 
Q 1965 -102 2490 -102 
Q 2822 -102 3148 35 
Q 3475 173 3744 518 
z
" transform="scale(0.015625)"/>
      <path id="HelveticaNeue-Bold-3c" d="M 4320 1728 
L 4320 4570 
L 3315 4570 
L 3315 1728 
Q 3315 1216 3110 976 
Q 2906 736 2368 736 
Q 2061 736 1878 822 
Q 1696 909 1593 1046 
Q 1491 1184 1459 1363 
Q 1427 1542 1427 1728 
L 1427 4570 
L 422 4570 
L 422 1728 
Q 422 794 931 346 
Q 1440 -102 2368 -102 
Q 3283 -102 3801 349 
Q 4320 800 4320 1728 
z
" transform="scale(0.015625)"/>
     </defs>
     <use xlink:href="#HelveticaNeue-Bold-f"/>
     <use xlink:href="#HelveticaNeue-Bold-2e" transform="translate(29.59375 0)"/>
     <use xlink:href="#HelveticaNeue-Bold-2e" transform="translate(105.5 0)"/>
     <use xlink:href="#HelveticaNeue-Bold-3c" transform="translate(181.40625 0)"/>
     <use xlink:href="#HelveticaNeue-Bold-2d" transform="translate(255.5 0)"/>
     <use xlink:href="#HelveticaNeue-Bold-10" transform="translate(314.796875 0)"/>
    </g>
   </g>
   <g id="text_4">
    <!-- Small model -->
    <g style="fill: #ffffff" transform="translate(136.669559 426.47359) scale(0.1 -0.1)">
     <defs>
      <path id="HelveticaNeue-Bold-3a" d="M 1126 1517 
L 154 1517 
Q 147 1094 307 787 
Q 467 480 739 281 
Q 1011 83 1366 -9 
Q 1722 -102 2099 -102 
Q 2566 -102 2921 6 
Q 3277 115 3517 310 
Q 3757 506 3878 774 
Q 4000 1043 4000 1357 
Q 4000 1741 3837 1987 
Q 3674 2234 3450 2381 
Q 3226 2528 2998 2595 
Q 2771 2662 2643 2688 
Q 2214 2797 1948 2867 
Q 1683 2938 1532 3008 
Q 1382 3078 1331 3161 
Q 1280 3245 1280 3379 
Q 1280 3526 1344 3622 
Q 1408 3718 1507 3782 
Q 1606 3846 1728 3872 
Q 1850 3898 1971 3898 
Q 2157 3898 2313 3866 
Q 2470 3834 2592 3757 
Q 2714 3680 2787 3545 
Q 2861 3411 2874 3206 
L 3846 3206 
Q 3846 3603 3696 3881 
Q 3546 4160 3290 4339 
Q 3034 4518 2704 4598 
Q 2374 4678 2016 4678 
Q 1709 4678 1401 4595 
Q 1094 4512 851 4339 
Q 608 4166 457 3907 
Q 307 3648 307 3296 
Q 307 2982 425 2761 
Q 544 2541 736 2393 
Q 928 2246 1171 2153 
Q 1414 2061 1670 1997 
Q 1920 1926 2163 1868 
Q 2406 1811 2598 1734 
Q 2790 1658 2908 1542 
Q 3027 1427 3027 1242 
Q 3027 1069 2937 957 
Q 2848 845 2713 781 
Q 2579 717 2425 694 
Q 2272 672 2138 672 
Q 1939 672 1753 720 
Q 1568 768 1430 867 
Q 1293 966 1209 1126 
Q 1126 1286 1126 1517 
z
" transform="scale(0.015625)"/>
      <path id="HelveticaNeue-Bold-4b" d="M 2694 1664 
Q 2694 1459 2656 1267 
Q 2618 1075 2528 924 
Q 2438 774 2288 684 
Q 2138 595 1914 595 
Q 1702 595 1552 688 
Q 1402 781 1302 931 
Q 1203 1082 1158 1274 
Q 1114 1466 1114 1658 
Q 1114 1862 1155 2051 
Q 1197 2240 1289 2387 
Q 1382 2534 1536 2624 
Q 1690 2714 1914 2714 
Q 2138 2714 2285 2624 
Q 2432 2534 2525 2390 
Q 2618 2246 2656 2057 
Q 2694 1869 2694 1664 
z
M 2707 422 
L 2707 0 
L 3571 0 
L 3571 4570 
L 2662 4570 
L 2662 2906 
L 2650 2906 
Q 2496 3149 2230 3273 
Q 1965 3398 1670 3398 
Q 1306 3398 1030 3254 
Q 755 3110 572 2873 
Q 390 2637 297 2326 
Q 205 2016 205 1683 
Q 205 1338 297 1018 
Q 390 698 572 451 
Q 755 205 1036 61 
Q 1318 -83 1690 -83 
Q 2016 -83 2275 35 
Q 2534 154 2694 422 
L 2707 422 
z
" transform="scale(0.015625)"/>
     </defs>
     <use xlink:href="#HelveticaNeue-Bold-3a"/>
     <use xlink:href="#HelveticaNeue-Bold-54" transform="translate(64.90625 0)"/>
     <use xlink:href="#HelveticaNeue-Bold-48" transform="translate(155.5 0)"/>
     <use xlink:href="#HelveticaNeue-Bold-53" transform="translate(212.90625 0)"/>
     <use xlink:href="#HelveticaNeue-Bold-53" transform="translate(238.703125 0)"/>
     <use xlink:href="#HelveticaNeue-Bold-3" transform="translate(264.5 0)"/>
     <use xlink:href="#HelveticaNeue-Bold-54" transform="translate(292.296875 0)"/>
     <use xlink:href="#HelveticaNeue-Bold-56" transform="translate(382.890625 0)"/>
     <use xlink:href="#HelveticaNeue-Bold-4b" transform="translate(443.984375 0)"/>
     <use xlink:href="#HelveticaNeue-Bold-4c" transform="translate(505.078125 0)"/>
     <use xlink:href="#HelveticaNeue-Bold-53" transform="translate(562.484375 0)"/>
    </g>
    <!-- (&lt; 12B params) -->
    <g style="fill: #ffffff" transform="translate(130.309403 438.68359) scale(0.1 -0.1)">
     <defs>
      <path id="HelveticaNeue-Bold-23" d="M 3546 2554 
L 3546 3290 
L 294 1997 
L 294 1242 
L 3546 -45 
L 3546 685 
L 1197 1619 
L 3546 2554 
z
" transform="scale(0.015625)"/>
      <path id="HelveticaNeue-Bold-18" d="M 2509 0 
L 2509 4480 
L 1786 4480 
Q 1747 4224 1625 4051 
Q 1504 3878 1328 3772 
Q 1152 3667 931 3625 
Q 710 3584 474 3590 
L 474 2906 
L 1600 2906 
L 1600 0 
L 2509 0 
z
" transform="scale(0.015625)"/>
      <path id="HelveticaNeue-Bold-19" d="M 237 2758 
L 1107 2758 
Q 1107 2938 1142 3120 
Q 1178 3302 1261 3452 
Q 1344 3603 1481 3696 
Q 1619 3789 1818 3789 
Q 2112 3789 2301 3606 
Q 2490 3424 2490 3098 
Q 2490 2893 2397 2733 
Q 2304 2573 2166 2445 
Q 2029 2317 1862 2211 
Q 1696 2106 1549 2003 
Q 1261 1805 1001 1613 
Q 742 1421 550 1193 
Q 358 966 246 678 
Q 134 390 134 0 
L 3424 0 
L 3424 781 
L 1306 781 
Q 1472 1011 1689 1184 
Q 1907 1357 2137 1507 
Q 2368 1658 2595 1811 
Q 2822 1965 3001 2153 
Q 3181 2342 3289 2585 
Q 3398 2829 3398 3168 
Q 3398 3494 3273 3756 
Q 3149 4019 2937 4198 
Q 2726 4378 2448 4474 
Q 2170 4570 1862 4570 
Q 1459 4570 1148 4432 
Q 838 4294 633 4048 
Q 429 3802 326 3472 
Q 224 3142 237 2758 
z
" transform="scale(0.015625)"/>
      <path id="HelveticaNeue-Bold-29" d="M 1446 2720 
L 1446 3789 
L 2387 3789 
Q 2522 3789 2646 3766 
Q 2771 3744 2867 3686 
Q 2963 3629 3020 3526 
Q 3078 3424 3078 3264 
Q 3078 2976 2905 2848 
Q 2733 2720 2464 2720 
L 1446 2720 
z
M 442 4570 
L 442 0 
L 2656 0 
Q 2963 0 3254 77 
Q 3546 154 3773 314 
Q 4000 474 4134 726 
Q 4269 979 4269 1325 
Q 4269 1754 4061 2058 
Q 3853 2362 3430 2483 
Q 3738 2630 3894 2860 
Q 4051 3091 4051 3437 
Q 4051 3757 3945 3974 
Q 3840 4192 3648 4323 
Q 3456 4454 3187 4512 
Q 2918 4570 2592 4570 
L 442 4570 
z
M 1446 781 
L 1446 2035 
L 2541 2035 
Q 2867 2035 3065 1884 
Q 3264 1734 3264 1382 
Q 3264 1203 3203 1088 
Q 3142 973 3040 905 
Q 2938 838 2803 809 
Q 2669 781 2522 781 
L 1446 781 
z
" transform="scale(0.015625)"/>
      <path id="HelveticaNeue-Bold-5a" d="M 1050 1075 
L 186 1075 
Q 198 742 336 521 
Q 474 301 688 166 
Q 902 32 1177 -25 
Q 1453 -83 1741 -83 
Q 2022 -83 2294 -28 
Q 2566 26 2777 160 
Q 2989 294 3120 515 
Q 3251 736 3251 1062 
Q 3251 1293 3161 1449 
Q 3072 1606 2925 1712 
Q 2778 1818 2589 1882 
Q 2400 1946 2202 1990 
Q 2010 2035 1824 2073 
Q 1638 2112 1494 2160 
Q 1350 2208 1260 2285 
Q 1171 2362 1171 2483 
Q 1171 2586 1222 2646 
Q 1274 2707 1347 2739 
Q 1421 2771 1510 2780 
Q 1600 2790 1677 2790 
Q 1920 2790 2099 2697 
Q 2278 2605 2298 2342 
L 3162 2342 
Q 3136 2650 3005 2851 
Q 2874 3053 2675 3174 
Q 2477 3296 2224 3347 
Q 1971 3398 1702 3398 
Q 1434 3398 1178 3350 
Q 922 3302 717 3184 
Q 512 3066 387 2861 
Q 262 2656 262 2336 
Q 262 2118 352 1968 
Q 442 1818 589 1718 
Q 736 1619 925 1558 
Q 1114 1498 1312 1453 
Q 1798 1350 2070 1248 
Q 2342 1146 2342 941 
Q 2342 819 2284 739 
Q 2227 659 2140 611 
Q 2054 563 1948 540 
Q 1843 518 1747 518 
Q 1613 518 1488 550 
Q 1363 582 1267 649 
Q 1171 717 1110 822 
Q 1050 928 1050 1075 
z
" transform="scale(0.015625)"/>
     </defs>
     <use xlink:href="#HelveticaNeue-Bold-f"/>
     <use xlink:href="#HelveticaNeue-Bold-23" transform="translate(29.59375 0)"/>
     <use xlink:href="#HelveticaNeue-Bold-3" transform="translate(89.59375 0)"/>
     <use xlink:href="#HelveticaNeue-Bold-18" transform="translate(117.390625 0)"/>
     <use xlink:href="#HelveticaNeue-Bold-19" transform="translate(172.984375 0)"/>
     <use xlink:href="#HelveticaNeue-Bold-29" transform="translate(228.578125 0)"/>
     <use xlink:href="#HelveticaNeue-Bold-3" transform="translate(298.984375 0)"/>
     <use xlink:href="#HelveticaNeue-Bold-57" transform="translate(326.78125 0)"/>
     <use xlink:href="#HelveticaNeue-Bold-48" transform="translate(387.875 0)"/>
     <use xlink:href="#HelveticaNeue-Bold-59" transform="translate(445.28125 0)"/>
     <use xlink:href="#HelveticaNeue-Bold-48" transform="translate(484.1875 0)"/>
     <use xlink:href="#HelveticaNeue-Bold-54" transform="translate(541.59375 0)"/>
     <use xlink:href="#HelveticaNeue-Bold-5a" transform="translate(632.1875 0)"/>
     <use xlink:href="#HelveticaNeue-Bold-10" transform="translate(685.890625 0)"/>
    </g>
   </g>
   <g id="text_5">
    <!-- Large model -->
    <g style="fill: #ffffff" transform="translate(405.988706 426.47359) scale(0.1 -0.1)">
     <defs>
      <path id="HelveticaNeue-Bold-4e" d="M 1888 781 
Q 1677 781 1536 870 
Q 1395 960 1308 1101 
Q 1222 1242 1187 1418 
Q 1152 1594 1152 1773 
Q 1152 1958 1193 2128 
Q 1235 2298 1328 2429 
Q 1421 2560 1558 2637 
Q 1696 2714 1888 2714 
Q 2112 2714 2259 2630 
Q 2406 2547 2496 2406 
Q 2586 2266 2624 2083 
Q 2662 1901 2662 1696 
Q 2662 1517 2614 1353 
Q 2566 1190 2470 1062 
Q 2374 934 2227 857 
Q 2080 781 1888 781 
z
M 3526 211 
L 3526 3309 
L 2662 3309 
L 2662 2867 
L 2650 2867 
Q 2483 3155 2236 3276 
Q 1990 3398 1664 3398 
Q 1318 3398 1052 3264 
Q 787 3130 608 2902 
Q 429 2675 336 2377 
Q 243 2080 243 1760 
Q 243 1421 323 1117 
Q 403 813 576 585 
Q 749 358 1017 227 
Q 1286 96 1658 96 
Q 1958 96 2230 221 
Q 2502 346 2650 608 
L 2662 608 
L 2662 173 
Q 2669 -179 2493 -409 
Q 2317 -640 1933 -640 
Q 1690 -640 1504 -541 
Q 1318 -442 1254 -186 
L 352 -186 
Q 371 -467 508 -668 
Q 646 -870 854 -998 
Q 1062 -1126 1315 -1187 
Q 1568 -1248 1811 -1248 
Q 2381 -1248 2720 -1094 
Q 3059 -941 3238 -720 
Q 3418 -499 3472 -243 
Q 3526 13 3526 211 
z
" transform="scale(0.015625)"/>
     </defs>
     <use xlink:href="#HelveticaNeue-Bold-33"/>
     <use xlink:href="#HelveticaNeue-Bold-48" transform="translate(59.296875 0)"/>
     <use xlink:href="#HelveticaNeue-Bold-59" transform="translate(116.703125 0)"/>
     <use xlink:href="#HelveticaNeue-Bold-4e" transform="translate(152.8125 0)"/>
     <use xlink:href="#HelveticaNeue-Bold-4c" transform="translate(213.90625 0)"/>
     <use xlink:href="#HelveticaNeue-Bold-3" transform="translate(271.3125 0)"/>
     <use xlink:href="#HelveticaNeue-Bold-54" transform="translate(299.109375 0)"/>
     <use xlink:href="#HelveticaNeue-Bold-56" transform="translate(389.703125 0)"/>
     <use xlink:href="#HelveticaNeue-Bold-4b" transform="translate(450.796875 0)"/>
     <use xlink:href="#HelveticaNeue-Bold-4c" transform="translate(511.890625 0)"/>
     <use xlink:href="#HelveticaNeue-Bold-53" transform="translate(569.296875 0)"/>
    </g>
    <!-- (≥ 12B params) -->
    <g style="fill: #ffffff" transform="translate(399.969175 438.68359) scale(0.1 -0.1)">
     <defs>
      <path id="HelveticaNeue-Bold-99" d="M 314 -224 
L 314 422 
L 3546 422 
L 3546 -224 
L 314 -224 
z
M 314 640 
L 314 1325 
L 2662 2074 
L 314 2861 
L 314 3546 
L 3546 2400 
L 3546 1741 
L 314 640 
z
" transform="scale(0.015625)"/>
     </defs>
     <use xlink:href="#HelveticaNeue-Bold-f"/>
     <use xlink:href="#HelveticaNeue-Bold-99" transform="translate(29.59375 0)"/>
     <use xlink:href="#HelveticaNeue-Bold-3" transform="translate(89.59375 0)"/>
     <use xlink:href="#HelveticaNeue-Bold-18" transform="translate(117.390625 0)"/>
     <use xlink:href="#HelveticaNeue-Bold-19" transform="translate(172.984375 0)"/>
     <use xlink:href="#HelveticaNeue-Bold-29" transform="translate(228.578125 0)"/>
     <use xlink:href="#HelveticaNeue-Bold-3" transform="translate(298.984375 0)"/>
     <use xlink:href="#HelveticaNeue-Bold-57" transform="translate(326.78125 0)"/>
     <use xlink:href="#HelveticaNeue-Bold-48" transform="translate(387.875 0)"/>
     <use xlink:href="#HelveticaNeue-Bold-59" transform="translate(445.28125 0)"/>
     <use xlink:href="#HelveticaNeue-Bold-48" transform="translate(484.1875 0)"/>
     <use xlink:href="#HelveticaNeue-Bold-54" transform="translate(541.59375 0)"/>
     <use xlink:href="#HelveticaNeue-Bold-5a" transform="translate(632.1875 0)"/>
     <use xlink:href="#HelveticaNeue-Bold-10" transform="translate(685.890625 0)"/>
    </g>
   </g>
   <g id="text_6">
    <!-- Quality critical? -->
    <g style="fill: #ffffff" transform="translate(668.38754 426.47359) scale(0.1 -0.1)">
     <defs>
      <path id="HelveticaNeue-Bold-38" d="M 3450 1216 
Q 3578 1389 3654 1645 
Q 3731 1901 3731 2266 
Q 3731 2566 3664 2848 
Q 3597 3130 3449 3350 
Q 3302 3571 3065 3702 
Q 2829 3834 2490 3834 
Q 2150 3834 1913 3702 
Q 1677 3571 1529 3350 
Q 1382 3130 1315 2848 
Q 1248 2566 1248 2266 
Q 1248 1978 1315 1706 
Q 1382 1434 1529 1216 
Q 1677 998 1913 867 
Q 2150 736 2490 736 
Q 2650 736 2733 749 
Q 2816 762 2893 800 
L 2464 1190 
L 2931 1690 
L 3450 1216 
z
M 3597 160 
Q 3142 -102 2490 -102 
Q 1965 -102 1545 80 
Q 1126 262 838 582 
Q 550 902 396 1334 
Q 243 1766 243 2266 
Q 243 2778 396 3216 
Q 550 3654 838 3980 
Q 1126 4307 1545 4492 
Q 1965 4678 2490 4678 
Q 3021 4678 3437 4492 
Q 3853 4307 4141 3980 
Q 4429 3654 4582 3216 
Q 4736 2778 4736 2266 
Q 4736 1766 4582 1337 
Q 4429 909 4141 582 
L 4710 64 
L 4243 -422 
L 3597 160 
z
" transform="scale(0.015625)"/>
      <path id="HelveticaNeue-Bold-5c" d="M 3450 0 
L 3450 3309 
L 2541 3309 
L 2541 1574 
Q 2541 1069 2374 848 
Q 2208 627 1837 627 
Q 1510 627 1382 828 
Q 1254 1030 1254 1440 
L 1254 3309 
L 346 3309 
L 346 1274 
Q 346 966 400 713 
Q 454 461 588 285 
Q 723 109 956 13 
Q 1190 -83 1555 -83 
Q 1843 -83 2118 45 
Q 2394 173 2566 461 
L 2586 461 
L 2586 0 
L 3450 0 
z
" transform="scale(0.015625)"/>
      <path id="HelveticaNeue-Bold-5b" d="M 1498 3309 
L 1498 4301 
L 589 4301 
L 589 3309 
L 38 3309 
L 38 2701 
L 589 2701 
L 589 749 
Q 589 499 672 345 
Q 755 192 899 109 
Q 1043 26 1232 -3 
Q 1421 -32 1632 -32 
Q 1766 -32 1907 -25 
Q 2048 -19 2163 0 
L 2163 704 
Q 2099 691 2028 684 
Q 1958 678 1882 678 
Q 1651 678 1574 755 
Q 1498 832 1498 1062 
L 1498 2701 
L 2163 2701 
L 2163 3309 
L 1498 3309 
z
" transform="scale(0.015625)"/>
      <path id="HelveticaNeue-Bold-60" d="M 1978 -410 
L 3360 3309 
L 2419 3309 
L 1696 1043 
L 1683 1043 
L 934 3309 
L -32 3309 
L 1126 205 
Q 1165 109 1165 0 
Q 1165 -147 1078 -268 
Q 992 -390 813 -410 
Q 678 -416 544 -403 
Q 410 -390 282 -378 
L 282 -1126 
Q 422 -1139 560 -1148 
Q 698 -1158 838 -1158 
Q 1306 -1158 1568 -985 
Q 1830 -813 1978 -410 
z
" transform="scale(0.015625)"/>
     </defs>
     <use xlink:href="#HelveticaNeue-Bold-38"/>
     <use xlink:href="#HelveticaNeue-Bold-5c" transform="translate(77.796875 0)"/>
     <use xlink:href="#HelveticaNeue-Bold-48" transform="translate(137.09375 0)"/>
     <use xlink:href="#HelveticaNeue-Bold-53" transform="translate(194.5 0)"/>
     <use xlink:href="#HelveticaNeue-Bold-50" transform="translate(220.296875 0)"/>
     <use xlink:href="#HelveticaNeue-Bold-5b" transform="translate(246.09375 0)"/>
     <use xlink:href="#HelveticaNeue-Bold-60" transform="translate(281.296875 0)"/>
     <use xlink:href="#HelveticaNeue-Bold-3" transform="translate(333.203125 0)"/>
     <use xlink:href="#HelveticaNeue-Bold-4a" transform="translate(361 0)"/>
     <use xlink:href="#HelveticaNeue-Bold-59" transform="translate(418.40625 0)"/>
     <use xlink:href="#HelveticaNeue-Bold-50" transform="translate(457.3125 0)"/>
     <use xlink:href="#HelveticaNeue-Bold-5b" transform="translate(483.109375 0)"/>
     <use xlink:href="#HelveticaNeue-Bold-50" transform="translate(518.3125 0)"/>
     <use xlink:href="#HelveticaNeue-Bold-4a" transform="translate(544.109375 0)"/>
     <use xlink:href="#HelveticaNeue-Bold-48" transform="translate(601.515625 0)"/>
     <use xlink:href="#HelveticaNeue-Bold-53" transform="translate(658.921875 0)"/>
     <use xlink:href="#HelveticaNeue-Bold-26" transform="translate(684.71875 0)"/>
    </g>
    <!-- (perplexity &lt; 18) -->
    <g style="fill: #ffffff" transform="translate(667.689103 438.68359) scale(0.1 -0.1)">
     <defs>
      <path id="HelveticaNeue-Bold-5f" d="M 1190 1741 
L 0 0 
L 1018 0 
L 1709 1043 
L 2400 0 
L 3437 0 
L 2214 1760 
L 3302 3309 
L 2298 3309 
L 1722 2445 
L 1139 3309 
L 102 3309 
L 1190 1741 
z
" transform="scale(0.015625)"/>
     </defs>
     <use xlink:href="#HelveticaNeue-Bold-f"/>
     <use xlink:href="#HelveticaNeue-Bold-57" transform="translate(29.59375 0)"/>
     <use xlink:href="#HelveticaNeue-Bold-4c" transform="translate(90.6875 0)"/>
     <use xlink:href="#HelveticaNeue-Bold-59" transform="translate(148.09375 0)"/>
     <use xlink:href="#HelveticaNeue-Bold-57" transform="translate(187 0)"/>
     <use xlink:href="#HelveticaNeue-Bold-53" transform="translate(248.09375 0)"/>
     <use xlink:href="#HelveticaNeue-Bold-4c" transform="translate(273.890625 0)"/>
     <use xlink:href="#HelveticaNeue-Bold-5f" transform="translate(331.296875 0)"/>
     <use xlink:href="#HelveticaNeue-Bold-50" transform="translate(385 0)"/>
     <use xlink:href="#HelveticaNeue-Bold-5b" transform="translate(410.796875 0)"/>
     <use xlink:href="#HelveticaNeue-Bold-60" transform="translate(446 0)"/>
     <use xlink:href="#HelveticaNeue-Bold-3" transform="translate(497.90625 0)"/>
     <use xlink:href="#HelveticaNeue-Bold-23" transform="translate(525.703125 0)"/>
     <use xlink:href="#HelveticaNeue-Bold-3" transform="translate(585.703125 0)"/>
     <use xlink:href="#HelveticaNeue-Bold-18" transform="translate(613.5 0)"/>
     <use xlink:href="#HelveticaNeue-Bold-1f" transform="translate(669.09375 0)"/>
     <use xlink:href="#HelveticaNeue-Bold-10" transform="translate(724.6875 0)"/>
    </g>
   </g>
   <g id="text_7">
    <!-- Use Q8_0 -->
    <g style="fill: #ffffff" transform="translate(581.681532 593.834568) scale(0.1 -0.1)">
     <defs>
      <path id="HelveticaNeue-Bold-46" d="M 0 -474 
L 0 -794 
L 3200 -794 
L 3200 -474 
L 0 -474 
z
" transform="scale(0.015625)"/>
      <path id="HelveticaNeue-Bold-17" d="M 1043 2259 
Q 1043 2374 1046 2537 
Q 1050 2701 1069 2873 
Q 1088 3046 1133 3216 
Q 1178 3386 1258 3520 
Q 1338 3654 1462 3737 
Q 1587 3821 1773 3821 
Q 1958 3821 2086 3737 
Q 2214 3654 2297 3520 
Q 2381 3386 2422 3216 
Q 2464 3046 2486 2873 
Q 2509 2701 2512 2537 
Q 2515 2374 2515 2259 
Q 2515 2067 2502 1795 
Q 2490 1523 2422 1270 
Q 2355 1018 2204 838 
Q 2054 659 1773 659 
Q 1498 659 1350 838 
Q 1203 1018 1136 1270 
Q 1069 1523 1056 1795 
Q 1043 2067 1043 2259 
z
M 134 2259 
Q 134 1587 265 1136 
Q 397 685 621 416 
Q 845 147 1142 32 
Q 1440 -83 1773 -83 
Q 2112 -83 2409 32 
Q 2707 147 2934 416 
Q 3162 685 3293 1136 
Q 3424 1587 3424 2259 
Q 3424 2912 3293 3357 
Q 3162 3802 2934 4070 
Q 2707 4339 2409 4454 
Q 2112 4570 1773 4570 
Q 1440 4570 1142 4454 
Q 845 4339 621 4070 
Q 397 3802 265 3357 
Q 134 2912 134 2259 
z
" transform="scale(0.015625)"/>
     </defs>
     <use xlink:href="#HelveticaNeue-Bold-3c"/>
     <use xlink:href="#HelveticaNeue-Bold-5a" transform="translate(74.09375 0)"/>
     <use xlink:href="#HelveticaNeue-Bold-4c" transform="translate(127.796875 0)"/>
     <use xlink:href="#HelveticaNeue-Bold-3" transform="translate(185.203125 0)"/>
     <use xlink:href="#HelveticaNeue-Bold-38" transform="translate(213 0)"/>
     <use xlink:href="#HelveticaNeue-Bold-1f" transform="translate(290.796875 0)"/>
     <use xlink:href="#HelveticaNeue-Bold-46" transform="translate(346.390625 0)"/>
     <use xlink:href="#HelveticaNeue-Bold-17" transform="translate(396.390625 0)"/>
    </g>
    <!-- (Near-lossless) -->
    <g style="fill: #ffffff" transform="translate(568.925282 606.044568) scale(0.1 -0.1)">
     <defs>
      <path id="HelveticaNeue-Bold-14" d="M 339 2138 
L 339 1357 
L 2266 1357 
L 2266 2138 
L 339 2138 
z
" transform="scale(0.015625)"/>
     </defs>
     <use xlink:href="#HelveticaNeue-Bold-f"/>
     <use xlink:href="#HelveticaNeue-Bold-35" transform="translate(29.59375 0)"/>
     <use xlink:href="#HelveticaNeue-Bold-4c" transform="translate(103.6875 0)"/>
     <use xlink:href="#HelveticaNeue-Bold-48" transform="translate(161.09375 0)"/>
     <use xlink:href="#HelveticaNeue-Bold-59" transform="translate(218.5 0)"/>
     <use xlink:href="#HelveticaNeue-Bold-14" transform="translate(251.90625 0)"/>
     <use xlink:href="#HelveticaNeue-Bold-53" transform="translate(292.609375 0)"/>
     <use xlink:href="#HelveticaNeue-Bold-56" transform="translate(318.40625 0)"/>
     <use xlink:href="#HelveticaNeue-Bold-5a" transform="translate(379.5 0)"/>
     <use xlink:href="#HelveticaNeue-Bold-5a" transform="translate(433.203125 0)"/>
     <use xlink:href="#HelveticaNeue-Bold-53" transform="translate(486.90625 0)"/>
     <use xlink:href="#HelveticaNeue-Bold-4c" transform="translate(512.703125 0)"/>
     <use xlink:href="#HelveticaNeue-Bold-5a" transform="translate(570.109375 0)"/>
     <use xlink:href="#HelveticaNeue-Bold-5a" transform="translate(623.8125 0)"/>
     <use xlink:href="#HelveticaNeue-Bold-10" transform="translate(677.515625 0)"/>
    </g>
   </g>
   <g id="text_8">
    <!-- Use Q4_K_M -->
    <g style="fill: #ffffff" transform="translate(809.768207 593.834568) scale(0.1 -0.1)">
     <defs>
      <path id="HelveticaNeue-Bold-32" d="M 442 4570 
L 442 0 
L 1446 0 
L 1446 1472 
L 2022 2054 
L 3398 0 
L 4659 0 
L 2701 2765 
L 4486 4570 
L 3232 4570 
L 1446 2675 
L 1446 4570 
L 442 4570 
z
" transform="scale(0.015625)"/>
     </defs>
     <use xlink:href="#HelveticaNeue-Bold-3c"/>
     <use xlink:href="#HelveticaNeue-Bold-5a" transform="translate(74.09375 0)"/>
     <use xlink:href="#HelveticaNeue-Bold-4c" transform="translate(127.796875 0)"/>
     <use xlink:href="#HelveticaNeue-Bold-3" transform="translate(185.203125 0)"/>
     <use xlink:href="#HelveticaNeue-Bold-38" transform="translate(213 0)"/>
     <use xlink:href="#HelveticaNeue-Bold-1b" transform="translate(290.796875 0)"/>
     <use xlink:href="#HelveticaNeue-Bold-46" transform="translate(346.390625 0)"/>
     <use xlink:href="#HelveticaNeue-Bold-32" transform="translate(396.390625 0)"/>
     <use xlink:href="#HelveticaNeue-Bold-46" transform="translate(468.59375 0)"/>
     <use xlink:href="#HelveticaNeue-Bold-34" transform="translate(518.59375 0)"/>
    </g>
    <!-- (Smallest file) -->
    <g style="fill: #ffffff" transform="translate(808.128363 606.044568) scale(0.1 -0.1)">
     <defs>
      <path id="HelveticaNeue-Bold-c4" d="M 544 2701 
L 544 0 
L 1453 0 
L 1453 2701 
L 2080 2701 
L 2080 3309 
L 1453 3309 
L 1453 3507 
Q 1453 3712 1533 3798 
Q 1613 3885 1798 3885 
Q 1971 3885 2131 3866 
L 2131 4544 
Q 2016 4550 1894 4560 
Q 1773 4570 1651 4570 
Q 1094 4570 819 4288 
Q 544 4006 544 3565 
L 544 3309 
L 0 3309 
L 0 2701 
L 544 2701 
z
M 2630 3309 
L 2630 0 
L 3539 0 
L 3539 3309 
L 2630 3309 
z
M 3539 3821 
L 3539 4570 
L 2630 4570 
L 2630 3821 
L 3539 3821 
z
" transform="scale(0.015625)"/>
     </defs>
     <use xlink:href="#HelveticaNeue-Bold-f"/>
     <use xlink:href="#HelveticaNeue-Bold-3a" transform="translate(29.59375 0)"/>
     <use xlink:href="#HelveticaNeue-Bold-54" transform="translate(94.5 0)"/>
     <use xlink:href="#HelveticaNeue-Bold-48" transform="translate(185.09375 0)"/>
     <use xlink:href="#HelveticaNeue-Bold-53" transform="translate(242.5 0)"/>
     <use xlink:href="#HelveticaNeue-Bold-53" transform="translate(268.296875 0)"/>
     <use xlink:href="#HelveticaNeue-Bold-4c" transform="translate(294.09375 0)"/>
     <use xlink:href="#HelveticaNeue-Bold-5a" transform="translate(351.5 0)"/>
     <use xlink:href="#HelveticaNeue-Bold-5b" transform="translate(405.203125 0)"/>
     <use xlink:href="#HelveticaNeue-Bold-3" transform="translate(440.40625 0)"/>
     <use xlink:href="#HelveticaNeue-Bold-c4" transform="translate(468.203125 0)"/>
     <use xlink:href="#HelveticaNeue-Bold-53" transform="translate(529.296875 0)"/>
     <use xlink:href="#HelveticaNeue-Bold-4c" transform="translate(555.09375 0)"/>
     <use xlink:href="#HelveticaNeue-Bold-10" transform="translate(612.5 0)"/>
    </g>
   </g>
   <g id="patch_20">
    <path d="M 417.053738 155.112123 
Q 326.193423 194.483519 236.871904 233.188128 
" style="fill: none; stroke: #666666; stroke-width: 1.5; stroke-linecap: round"/>
    <path d="M 244.016599 233.579711 
L 236.871904 233.188128 
L 241.471988 227.707322 
" style="fill: none; stroke: #666666; stroke-width: 1.5; stroke-linecap: round"/>
   </g>
   <g id="text_9">
    <!-- MLX -->
    <g style="fill: #9e9e9e" transform="translate(316.44247 179.141343) scale(0.09 -0.09)">
     <use xlink:href="#HelveticaNeue-Bold-34"/>
     <use xlink:href="#HelveticaNeue-Bold-33" transform="translate(90.703125 0)"/>
     <use xlink:href="#HelveticaNeue-Bold-3f" transform="translate(150 0)"/>
    </g>
   </g>
   <g id="patch_21">
    <path d="M 420.725577 155.112123 
Q 511.585892 194.483519 600.907411 233.188128 
" style="fill: none; stroke: #666666; stroke-width: 1.5; stroke-linecap: round"/>
    <path d="M 596.307327 227.707322 
L 600.907411 233.188128 
L 593.762716 233.579711 
" style="fill: none; stroke: #666666; stroke-width: 1.5; stroke-linecap: round"/>
   </g>
   <g id="text_10">
    <!-- GGUF -->
    <g style="fill: #9e9e9e" transform="translate(498.751063 179.141343) scale(0.09 -0.09)">
     <use xlink:href="#HelveticaNeue-Bold-2e"/>
     <use xlink:href="#HelveticaNeue-Bold-2e" transform="translate(75.90625 0)"/>
     <use xlink:href="#HelveticaNeue-Bold-3c" transform="translate(151.8125 0)"/>
     <use xlink:href="#HelveticaNeue-Bold-2d" transform="translate(225.90625 0)"/>
    </g>
   </g>
   <g id="patch_22">
    <path d="M 232.480181 289.924537 
Q 199.791506 345.107404 167.957558 398.847377 
" style="fill: none; stroke: #666666; stroke-width: 1.5; stroke-linecap: round"/>
    <path d="M 173.972588 394.971888 
L 167.957558 398.847377 
L 168.466185 391.71006 
" style="fill: none; stroke: #666666; stroke-width: 1.5; stroke-linecap: round"/>
   </g>
   <g id="text_11">
    <!-- Small -->
    <g style="fill: #9e9e9e" transform="translate(187.888593 329.766223) scale(0.09 -0.09)">
     <use xlink:href="#HelveticaNeue-Bold-3a"/>
     <use xlink:href="#HelveticaNeue-Bold-54" transform="translate(64.90625 0)"/>
     <use xlink:href="#HelveticaNeue-Bold-48" transform="translate(155.5 0)"/>
     <use xlink:href="#HelveticaNeue-Bold-53" transform="translate(212.90625 0)"/>
     <use xlink:href="#HelveticaNeue-Bold-53" transform="translate(238.703125 0)"/>
    </g>
   </g>
   <g id="patch_23">
    <path d="M 235.242161 289.18651 
Q 334.622376 345.108888 432.541047 400.208837 
" style="fill: none; stroke: #666666; stroke-width: 1.5; stroke-linecap: round"/>
    <path d="M 428.532751 394.28148 
L 432.541047 400.208837 
L 425.394183 399.859059 
" style="fill: none; stroke: #666666; stroke-width: 1.5; stroke-linecap: round"/>
   </g>
   <g id="text_12">
    <!-- Large -->
    <g style="fill: #9e9e9e" transform="translate(322.411916 329.766223) scale(0.09 -0.09)">
     <use xlink:href="#HelveticaNeue-Bold-33"/>
     <use xlink:href="#HelveticaNeue-Bold-48" transform="translate(59.296875 0)"/>
     <use xlink:href="#HelveticaNeue-Bold-59" transform="translate(116.703125 0)"/>
     <use xlink:href="#HelveticaNeue-Bold-4e" transform="translate(152.8125 0)"/>
     <use xlink:href="#HelveticaNeue-Bold-4c" transform="translate(213.90625 0)"/>
    </g>
   </g>
   <g id="patch_24">
    <path d="M 605.610821 289.702261 
Q 654.841569 345.107664 702.958378 399.259415 
" style="fill: none; stroke: #666666; stroke-width: 1.5; stroke-linecap: round"/>
    <path d="M 701.099448 392.349684 
L 702.958378 399.259415 
L 696.315236 396.60072 
" style="fill: none; stroke: #666666; stroke-width: 1.5; stroke-linecap: round"/>
   </g>
   <g id="text_13">
    <!-- Yes -->
    <g style="fill: #9e9e9e" transform="translate(647.339614 329.766223) scale(0.09 -0.09)">
     <defs>
      <path id="HelveticaNeue-Bold-40" d="M 1626 1779 
L 1626 0 
L 2630 0 
L 2630 1754 
L 4326 4570 
L 3206 4570 
L 2144 2765 
L 1075 4570 
L -51 4570 
L 1626 1779 
z
" transform="scale(0.015625)"/>
     </defs>
     <use xlink:href="#HelveticaNeue-Bold-40"/>
     <use xlink:href="#HelveticaNeue-Bold-4c" transform="translate(55.609375 0)"/>
     <use xlink:href="#HelveticaNeue-Bold-5a" transform="translate(113.015625 0)"/>
    </g>
   </g>
   <g id="text_14">
    <!-- No -->
    <g style="fill: #9e9e9e" transform="translate(716.173463 329.766223) scale(0.09 -0.09)">
     <use xlink:href="#HelveticaNeue-Bold-35"/>
     <use xlink:href="#HelveticaNeue-Bold-56" transform="translate(74.09375 0)"/>
    </g>
   </g>
   <g id="patch_25">
    <path d="M 605.316107 621.213774 
Q 654.842677 539.245646 703.501963 458.7129 
" style="fill: none; stroke: #666666; stroke-width: 1.5; stroke-linecap: round"/>
    <path d="M 697.453351 462.535764 
L 703.501963 458.7129 
L 702.931088 465.845508 
" style="fill: none; stroke: #666666; stroke-width: 1.5; stroke-linecap: round"/>
   </g>
   <g id="patch_26">
    <path d="M 49.261382 621.290386 
Q 107.095842 539.246416 163.964055 458.573164 
" style="fill: none; stroke: #666666; stroke-width: 1.5; stroke-linecap: round"/>
    <path d="M 157.66116 461.960422 
L 163.964055 458.573164 
L 162.892124 465.647835 
" style="fill: none; stroke: #666666; stroke-width: 1.5; stroke-linecap: round"/>
   </g>
   <g id="text_15">
    <!-- Use MXFP8 -->
    <g style="fill: #ffffff" transform="translate(138.483622 593.834568) scale(0.1 -0.1)">
     <use xlink:href="#HelveticaNeue-Bold-3c"/>
     <use xlink:href="#HelveticaNeue-Bold-5a" transform="translate(74.09375 0)"/>
     <use xlink:href="#HelveticaNeue-Bold-4c" transform="translate(127.796875 0)"/>
     <use xlink:href="#HelveticaNeue-Bold-3" transform="translate(185.203125 0)"/>
     <use xlink:href="#HelveticaNeue-Bold-34" transform="translate(213 0)"/>
     <use xlink:href="#HelveticaNeue-Bold-3f" transform="translate(303.703125 0)"/>
     <use xlink:href="#HelveticaNeue-Bold-2d" transform="translate(370.40625 0)"/>
     <use xlink:href="#HelveticaNeue-Bold-37" transform="translate(429.703125 0)"/>
     <use xlink:href="#HelveticaNeue-Bold-1f" transform="translate(496.40625 0)"/>
    </g>
    <!-- (Faster on small) -->
    <g style="fill: #ffffff" transform="translate(126.56409 606.044568) scale(0.1 -0.1)">
     <defs>
      <path id="HelveticaNeue-Bold-55" d="M 346 3309 
L 346 0 
L 1254 0 
L 1254 1734 
Q 1254 2240 1420 2461 
Q 1587 2682 1958 2682 
Q 2285 2682 2413 2480 
Q 2541 2278 2541 1869 
L 2541 0 
L 3450 0 
L 3450 2035 
Q 3450 2342 3395 2595 
Q 3341 2848 3206 3024 
Q 3072 3200 2838 3299 
Q 2605 3398 2240 3398 
Q 1952 3398 1677 3267 
Q 1402 3136 1229 2848 
L 1210 2848 
L 1210 3309 
L 346 3309 
z
" transform="scale(0.015625)"/>
     </defs>
     <use xlink:href="#HelveticaNeue-Bold-f"/>
     <use xlink:href="#HelveticaNeue-Bold-2d" transform="translate(29.59375 0)"/>
     <use xlink:href="#HelveticaNeue-Bold-48" transform="translate(88.890625 0)"/>
     <use xlink:href="#HelveticaNeue-Bold-5a" transform="translate(146.296875 0)"/>
     <use xlink:href="#HelveticaNeue-Bold-5b" transform="translate(200 0)"/>
     <use xlink:href="#HelveticaNeue-Bold-4c" transform="translate(235.203125 0)"/>
     <use xlink:href="#HelveticaNeue-Bold-59" transform="translate(292.609375 0)"/>
     <use xlink:href="#HelveticaNeue-Bold-3" transform="translate(331.515625 0)"/>
     <use xlink:href="#HelveticaNeue-Bold-56" transform="translate(359.3125 0)"/>
     <use xlink:href="#HelveticaNeue-Bold-55" transform="translate(420.40625 0)"/>
     <use xlink:href="#HelveticaNeue-Bold-3" transform="translate(479.703125 0)"/>
     <use xlink:href="#HelveticaNeue-Bold-5a" transform="translate(507.5 0)"/>
     <use xlink:href="#HelveticaNeue-Bold-54" transform="translate(561.203125 0)"/>
     <use xlink:href="#HelveticaNeue-Bold-48" transform="translate(651.796875 0)"/>
     <use xlink:href="#HelveticaNeue-Bold-53" transform="translate(709.203125 0)"/>
     <use xlink:href="#HelveticaNeue-Bold-53" transform="translate(735 0)"/>
     <use xlink:href="#HelveticaNeue-Bold-10" transform="translate(760.796875 0)"/>
    </g>
   </g>
   <g id="patch_27">
    <path d="M 318.921154 621.290386 
Q 376.755614 539.246416 433.623826 458.573164 
" style="fill: none; stroke: #666666; stroke-width: 1.5; stroke-linecap: round"/>
    <path d="M 427.320931 461.960422 
L 433.623826 458.573164 
L 432.551896 465.647835 
" style="fill: none; stroke: #666666; stroke-width: 1.5; stroke-linecap: round"/>
   </g>
   <g id="text_16">
    <!-- Use NVFP4 -->
    <g style="fill: #ffffff" transform="translate(409.159018 593.834568) scale(0.1 -0.1)">
     <use xlink:href="#HelveticaNeue-Bold-3c"/>
     <use xlink:href="#HelveticaNeue-Bold-5a" transform="translate(74.09375 0)"/>
     <use xlink:href="#HelveticaNeue-Bold-4c" transform="translate(127.796875 0)"/>
     <use xlink:href="#HelveticaNeue-Bold-3" transform="translate(185.203125 0)"/>
     <use xlink:href="#HelveticaNeue-Bold-35" transform="translate(213 0)"/>
     <use xlink:href="#HelveticaNeue-Bold-3d" transform="translate(287.09375 0)"/>
     <use xlink:href="#HelveticaNeue-Bold-2d" transform="translate(350.09375 0)"/>
     <use xlink:href="#HelveticaNeue-Bold-37" transform="translate(409.390625 0)"/>
     <use xlink:href="#HelveticaNeue-Bold-1b" transform="translate(476.09375 0)"/>
    </g>
    <!-- (Best all-around) -->
    <g style="fill: #ffffff" transform="translate(396.308237 606.044568) scale(0.1 -0.1)">
     <use xlink:href="#HelveticaNeue-Bold-f"/>
     <use xlink:href="#HelveticaNeue-Bold-29" transform="translate(29.59375 0)"/>
     <use xlink:href="#HelveticaNeue-Bold-4c" transform="translate(100 0)"/>
     <use xlink:href="#HelveticaNeue-Bold-5a" transform="translate(157.40625 0)"/>
     <use xlink:href="#HelveticaNeue-Bold-5b" transform="translate(211.109375 0)"/>
     <use xlink:href="#HelveticaNeue-Bold-3" transform="translate(246.3125 0)"/>
     <use xlink:href="#HelveticaNeue-Bold-48" transform="translate(274.109375 0)"/>
     <use xlink:href="#HelveticaNeue-Bold-53" transform="translate(331.515625 0)"/>
     <use xlink:href="#HelveticaNeue-Bold-53" transform="translate(357.3125 0)"/>
     <use xlink:href="#HelveticaNeue-Bold-14" transform="translate(383.109375 0)"/>
     <use xlink:href="#HelveticaNeue-Bold-48" transform="translate(423.8125 0)"/>
     <use xlink:href="#HelveticaNeue-Bold-59" transform="translate(481.21875 0)"/>
     <use xlink:href="#HelveticaNeue-Bold-56" transform="translate(518.328125 0)"/>
     <use xlink:href="#HelveticaNeue-Bold-5c" transform="translate(579.421875 0)"/>
     <use xlink:href="#HelveticaNeue-Bold-55" transform="translate(638.71875 0)"/>
     <use xlink:href="#HelveticaNeue-Bold-4b" transform="translate(698.015625 0)"/>
     <use xlink:href="#HelveticaNeue-Bold-10" transform="translate(759.109375 0)"/>
    </g>
   </g>
   <g id="text_17">
    <!-- Quantization Decision Flowchart -->
    <g transform="translate(263.739658 33.9) scale(0.2 -0.2)">
     <defs>
      <path id="HelveticaNeue-Bold-61" d="M 141 685 
L 141 0 
L 3181 0 
L 3181 685 
L 1338 685 
L 3059 2624 
L 3059 3309 
L 269 3309 
L 269 2624 
L 1862 2624 
L 141 685 
z
" transform="scale(0.015625)"/>
      <path id="HelveticaNeue-Bold-2b" d="M 1446 845 
L 1446 3725 
L 2163 3725 
Q 2534 3725 2787 3619 
Q 3040 3514 3193 3315 
Q 3347 3117 3414 2838 
Q 3482 2560 3482 2214 
Q 3482 1837 3386 1574 
Q 3290 1312 3130 1149 
Q 2970 986 2765 915 
Q 2560 845 2342 845 
L 1446 845 
z
M 442 4570 
L 442 0 
L 2413 0 
Q 2938 0 3325 176 
Q 3712 352 3971 659 
Q 4230 966 4358 1388 
Q 4486 1811 4486 2310 
Q 4486 2880 4329 3302 
Q 4173 3725 3894 4006 
Q 3616 4288 3235 4429 
Q 2854 4570 2413 4570 
L 442 4570 
z
" transform="scale(0.015625)"/>
     </defs>
     <use xlink:href="#HelveticaNeue-Bold-38"/>
     <use xlink:href="#HelveticaNeue-Bold-5c" transform="translate(77.796875 0)"/>
     <use xlink:href="#HelveticaNeue-Bold-48" transform="translate(137.09375 0)"/>
     <use xlink:href="#HelveticaNeue-Bold-55" transform="translate(194.5 0)"/>
     <use xlink:href="#HelveticaNeue-Bold-5b" transform="translate(253.796875 0)"/>
     <use xlink:href="#HelveticaNeue-Bold-50" transform="translate(289 0)"/>
     <use xlink:href="#HelveticaNeue-Bold-61" transform="translate(314.796875 0)"/>
     <use xlink:href="#HelveticaNeue-Bold-48" transform="translate(366.703125 0)"/>
     <use xlink:href="#HelveticaNeue-Bold-5b" transform="translate(424.109375 0)"/>
     <use xlink:href="#HelveticaNeue-Bold-50" transform="translate(459.3125 0)"/>
     <use xlink:href="#HelveticaNeue-Bold-56" transform="translate(485.109375 0)"/>
     <use xlink:href="#HelveticaNeue-Bold-55" transform="translate(546.203125 0)"/>
     <use xlink:href="#HelveticaNeue-Bold-3" transform="translate(605.5 0)"/>
     <use xlink:href="#HelveticaNeue-Bold-2b" transform="translate(633.296875 0)"/>
     <use xlink:href="#HelveticaNeue-Bold-4c" transform="translate(707.390625 0)"/>
     <use xlink:href="#HelveticaNeue-Bold-4a" transform="translate(764.796875 0)"/>
     <use xlink:href="#HelveticaNeue-Bold-50" transform="translate(822.203125 0)"/>
     <use xlink:href="#HelveticaNeue-Bold-5a" transform="translate(848 0)"/>
     <use xlink:href="#HelveticaNeue-Bold-50" transform="translate(901.703125 0)"/>
     <use xlink:href="#HelveticaNeue-Bold-56" transform="translate(927.5 0)"/>
     <use xlink:href="#HelveticaNeue-Bold-55" transform="translate(988.59375 0)"/>
     <use xlink:href="#HelveticaNeue-Bold-3" transform="translate(1047.890625 0)"/>
     <use xlink:href="#HelveticaNeue-Bold-2d" transform="translate(1075.6875 0)"/>
     <use xlink:href="#HelveticaNeue-Bold-53" transform="translate(1134.984375 0)"/>
     <use xlink:href="#HelveticaNeue-Bold-56" transform="translate(1160.78125 0)"/>
     <use xlink:href="#HelveticaNeue-Bold-5e" transform="translate(1221.875 0)"/>
     <use xlink:href="#HelveticaNeue-Bold-4a" transform="translate(1303.28125 0)"/>
     <use xlink:href="#HelveticaNeue-Bold-4f" transform="translate(1360.6875 0)"/>
     <use xlink:href="#HelveticaNeue-Bold-48" transform="translate(1419.984375 0)"/>
     <use xlink:href="#HelveticaNeue-Bold-59" transform="translate(1477.390625 0)"/>
     <use xlink:href="#HelveticaNeue-Bold-5b" transform="translate(1516.296875 0)"/>
    </g>
   </g>
  </g>
 </g>
 <defs>
  <clipPath id="p848c5e9485">
   <rect x="14.4" y="53.9" width="808.979315" height="602.49952"/>
  </clipPath>
 </defs>
</svg>
